<!DOCTYPE svg PUBLIC "-//W3C//DTD SVG 1.1//EN" "http://www.w3.org/Graphics/SVG/1.1/DTD/svg11.dtd">
<!-- Uploaded to: SVG Repo, www.svgrepo.com, Transformed by: SVG Repo Mixer Tools -->
<svg fill="#00246b" height="147px" width="147px" version="1.1" id="Layer_1" xmlns="http://www.w3.org/2000/svg" xmlns:xlink="http://www.w3.org/1999/xlink" viewBox="0 0 512 512" xml:space="preserve" stroke="#00246b">
<g id="SVGRepo_bgCarrier" stroke-width="0"/>
<g id="SVGRepo_tracerCarrier" stroke-linecap="round" stroke-linejoin="round"/>
<g id="SVGRepo_iconCarrier"> <g> <g> <path d="M357.234,329.728V69.738C357.234,31.284,325.949,0,287.496,0c-38.454,0-69.738,31.284-69.738,69.738v259.99 C146.522,393.788,192.221,512,287.496,512C382.96,512,428.362,393.692,357.234,329.728z M255.222,69.738 c-0.001-17.796,14.477-32.275,32.273-32.275s32.276,14.478,32.276,32.275v159.228h-64.549V69.738z M287.496,474.537 c-64.393,0-91.584-82.561-39.852-120.903c4.767-3.534,7.578-9.116,7.578-15.049v-72.153h64.549v72.153 c0,5.933,2.811,11.516,7.578,15.049C379.05,391.955,351.955,474.537,287.496,474.537z"/> </g> </g> <g> <g> <path d="M170.23,237.268h-31.484c-10.345,0-18.732,8.387-18.732,18.732s8.387,18.732,18.732,18.732h31.484 c10.345,0,18.732-8.387,18.732-18.732S180.575,237.268,170.23,237.268z"/> </g> </g> <g> <g> <path d="M170.23,175.566h-31.484c-10.345,0-18.732,8.387-18.732,18.732c0,10.345,8.387,18.732,18.732,18.732h31.484 c10.345,0,18.732-8.387,18.732-18.732C188.962,183.953,180.575,175.566,170.23,175.566z"/> </g> </g> <g> <g> <path d="M170.23,113.864h-31.484c-10.345,0-18.732,8.387-18.732,18.732s8.387,18.732,18.732,18.732h31.484 c10.345,0,18.732-8.387,18.732-18.732S180.575,113.864,170.23,113.864z"/> </g> </g> </g>
</svg>